<?xml version="1.0" ?><svg id="Layer_1_1_" style="enable-background:new 0 0 64 64;" version="1.1" viewBox="0 0 64 64" xml:space="preserve" xmlns="http://www.w3.org/2000/svg" xmlns:xlink="http://www.w3.org/1999/xlink"><g/><circle cx="22" cy="32" r="6" style="fill:#FAC05E;"/><circle cx="42" cy="32" r="6" style="fill:#FAC05E;"/><path d="M52,22v12c0,2.209-1.791,4-4,4h-8h-4h-8h-2H16c-2.209,0-4-1.791-4-4V22H8v12c0,4.418,3.582,8,8,8v19  h12V49.182l8-6.545V61h12V42c4.418,0,8-3.582,8-8V22H52z M28,42h2.833L28,44.429V42z" style="fill:#FAC05E;"/><rect height="4" style="fill:#EE6352;" width="54" x="5" y="18"/><polygon points="24,18 8,18 11,7 21,7 " style="fill:#50D4E3;"/><polygon points="21,7 27,7 31,18 24,18 " style="fill:#50D4E3;"/><polygon points="49,18 33,18 36,7 46,7 " style="fill:#50D4E3;"/><polygon points="46,7 52,7 56,18 49,18 " style="fill:#50D4E3;"/><path d="M59,17h-2.3L52.939,6.658C52.796,6.263,52.421,6,52,6h-6h-0.184C45.928,5.686,46,5.352,46,5  c0-1.654-1.346-3-3-3s-3,1.346-3,3c0,0.352,0.072,0.686,0.184,1H36c-0.451,0-0.846,0.302-0.965,0.737L32.236,17H31.7L27.939,6.658  C27.796,6.263,27.421,6,27,6h-6h-0.184C20.928,5.686,21,5.352,21,5c0-1.654-1.346-3-3-3s-3,1.346-3,3c0,0.352,0.072,0.686,0.184,1  H11c-0.451,0-0.846,0.302-0.965,0.737L7.236,17H5c-0.553,0-1,0.447-1,1v4c0,0.553,0.447,1,1,1h2v11c0,4.625,3.506,8.445,8,8.944V61  c0,0.553,0.447,1,1,1h6h6c0.553,0,1-0.447,1-1V49.5l6-4.5v16c0,0.553,0.447,1,1,1h6h6c0.553,0,1-0.447,1-1V42.944  c4.494-0.499,8-4.319,8-8.944V23h2c0.553,0,1-0.447,1-1v-4C60,17.447,59.553,17,59,17z M51.3,8l3.272,9h-4.809l-0.491-1.8L47.31,8  H51.3z M42,5c0-0.552,0.448-1,1-1s1,0.448,1,1s-0.448,1-1,1S42,5.552,42,5z M36.764,8h8.473l0.491,1.8L47.69,17H34.31L36.764,8z   M26.3,8l3.272,9h-4.809l-0.491-1.8L22.31,8H26.3z M17,5c0-0.552,0.448-1,1-1s1,0.448,1,1s-0.448,1-1,1S17,5.552,17,5z M11.764,8  h8.473l0.491,1.8L22.69,17H9.31L11.764,8z M27,42v18h-4V49h-2v11h-4V42c0-0.553-0.447-1-1-1c-3.859,0-7-3.141-7-7V23h2v11  c0,2.757,2.243,5,5,5h15.586l-2,2H28C27.447,41,27,41.447,27,42z M39,33c0,0.794-0.469,1.476-1.141,1.798  C37.317,33.999,37,33.036,37,32c0-2.757,2.243-5,5-5s5,2.243,5,5s-2.243,5-5,5c-0.976,0-1.881-0.292-2.651-0.778  C40.345,35.494,41,34.326,41,33H39z M49,32c0-3.859-3.141-7-7-7s-7,3.141-7,7c0,1.902,0.765,3.626,2,4.889V37  c0.034,0,0.066-0.009,0.1-0.01c0.004,0.004,0.007,0.007,0.011,0.01H37h-1.343h-8.768C28.19,35.728,29,33.958,29,32  c0-3.859-3.141-7-7-7s-7,3.141-7,7c0,1.958,0.81,3.728,2.111,5H16c-1.654,0-3-1.346-3-3V23h38v11c0,1.654-1.346,3-3,3h-1.111  C48.19,35.728,49,33.958,49,32z M17,32c0-2.757,2.243-5,5-5s5,2.243,5,5c0,1.129-0.39,2.16-1.024,2.998  C24.885,34.985,24,34.094,24,33h-2c0,1.524,0.866,2.835,2.122,3.51C23.475,36.816,22.761,37,22,37C19.243,37,17,34.757,17,32z   M55,34c0,3.859-3.141,7-7,7c-0.553,0-1,0.447-1,1v18h-4V49h-2v11h-4V43c0-0.379-0.214-0.725-0.553-0.895  c-0.339-0.167-0.744-0.134-1.047,0.095L29,47v-2.586l4.535-4.535C34.102,39.312,34.855,39,35.657,39H37h11c2.757,0,5-2.243,5-5V23h2  V34z M58,21H6v-2h2h16h7h2h16h7h2V21z" style="fill:#0F272A;"/></svg>